<svg id="logo-vertical" xmlns="http://www.w3.org/2000/svg" viewBox="0 0 139.95 243.07"><path id="logo-vertical-01" d="M83.64,104.07a1.44,1.44,0,1,0-2.88-.07v.07a1.44,1.44,0,0,0,2.88,0"/><path id="logo-vertical-02" d="M87.57,104.17a5.47,5.47,0,1,0-5.46,5.46,5.46,5.46,0,0,0,5.46-5.46m-8.34,0a2.88,2.88,0,1,1,2.87,3,3,3,0,0,1-2.87-3m21.39,17.07h9.69V130l-10.08,4.31v7.49l10-4.22v8h6.9v-42.3h-6.9v11.32h-9.59Zm2.59-4.22h9.69V105.7h1.72v37.12H112.9v-9.21l-10,4.22v-1.91l10-4.22V118.75h-9.79Zm24.65,21.68V124.41l10.55-5.28v-7.48l-10.55,5.18V103.21h-7v42.3h19.08V138.7Zm9.5,4.22H123.45V105.7h1.82V121l10.55-5.18v1.73l-10.55,5.27v18.42h12.09ZM68.1,192.22h7.2V154.33H68.1ZM70.79,157h1.82v32.51H70.79Zm.1,43.74h-7.1v42.3h7.1V222.62l14.48,6V220.9L70.89,215Zm11.8,22v1.92L68.2,218.69v21.78H66.47v-37H68.2v13.33Z"/><path id="logo-vertical-03" d="M75.3,117.6h14v-7.1h-14v-7.39H68.1v7.39H54.48v7.1H68.1v28h7.2Zm-2.69,25.32H70.79V115H57.07v-1.83H70.79V105.8h1.82v7.38h14v1.73h-14Z"/><path id="logo-vertical-04" d="M78,122.58l6.14,16.88H91.6l-6.14-16.88ZM86,136.78l-4.22-11.51h1.82l4.22,11.51Zm-21.1-14.2H56.88v1.35a24.24,24.24,0,0,1-5.08,14l-1.15,1.34-1.25,1.44A31.93,31.93,0,0,0,53,140a13.84,13.84,0,0,0,5.66-2.78c2.59-2,5.66-6,6.24-13.34Zm-4.61,8.55a13.21,13.21,0,0,1-3.35,4l-.58.48a25.86,25.86,0,0,0,3.07-10.36h2.59a17.93,17.93,0,0,1-1.72,5.85M22.16,200.76H2.21v6.61h20Zm-2.59,4H4.8v-1.43H19.57Zm9.88,7.2,11.7-4.22v-7.29l-18.42,6.9v10.55L18.9,243h6.9l3.36-22.25h2.69v22.16h6.9V220.71h4.41v-6.62H29.45Zm11.12,4.7v1.44H36.06v22.15H34.34V218.12H26.86L23.5,240.37H21.87l3.36-22.26v-9l13.33-5v1.73l-11.7,4.31v6.53Zm-23.79-4H8v8.63h8.92Zm-2.59,6H10.45v-3.45H14.2Z"/><path id="logo-vertical-05" d="M21,208.72H3.74v12.37L1.44,243H8.15l1.92-17.74H21Zm-2.59,13.9H7.77L5.85,240.37H4.32l2.11-19.09v-10h12ZM9.5,194.14l4.31-8.63H6l-4.32,8.63Zm-2-6h2l-1.73,3.45h-2Zm26.19-2.5L38,194.14h7.68l-4.42-8.54Zm5.94,6-1.82-3.36h1.92l1.82,3.36Zm-17.45-6h-7.1L17.17,194h7Zm-2.88,5.76-.86-3.17h1.73l.86,3.17Zm5-5.76,3,8.35h7.29l-3-8.35Zm4.8,5.76-1.15-3.17h1.72l1.15,3.17Zm12.17-28.2H34.53v21.48h6.71Zm-4.12,2.59h1.53v16.31H37.12ZM25.61,181.67h6.62V163.35H25.61Zm2.59-15.73h1.44v13.23H28.2Zm-4.32,18.7V163.06h-18v21.58h6.52v-3.45h4.89v3.45Zm-14.1-6v3.45H8.44v-16.5H21.29v16.5H19.85V178.6Z"/><path id="logo-vertical-06" d="M19.85,166.7H9.78v4.9H19.85Zm-2,2.79h-6v-.77h5.94Zm2,3.16H9.78v4.8H19.85Zm-2,2.78h-6v-.76h5.94Zm25.23-19.85H34.62l1.92-3.65H29.16l-1.92,3.65h-8l-1.92-3.65H10l1.92,3.65H4.12V162h39Zm-2.59,3.84H6.71v-1.25h9.4l-1.91-3.65h1.62l1.92,3.65H28.87l1.92-3.65h1.63l-1.91,3.65h10Zm69.92,44-8.63-3.26v7.39l8.63,3.26Zm-2.59,3.65-3.45-1.35v-1.82l3.45,1.34Zm-6,9.3,8.63,3.26v-7.38L101.77,209Zm2.59-3.64,3.45,1.34v1.82l-3.45-1.34Zm-1.06,8.63-6.9,21.39h7.19l7-21.39Zm-1.63,18.8H99.85L105.22,224h1.92ZM110.5,243h7.67l4.6-9.3H115Zm8-6.72-2,4.13h-1.92l1.92-4.13Zm16.5-19.47h3.36v-6.61h-17v-.67l14.68-2.88V200L115,204l-1.82,21.39h-3.27V232h29.64v-6.62h-3.84Zm2,12.76H112.61v-1.44h3.07l1.82-21.77,16.11-3.07v1.34L119,207.37l-.38,5.37h17.26v1.45h-3.64l1.15,13.9h3.65Z"/><path id="logo-vertical-07" d="M118.55,214.18l-1,13.91h14l-1.05-13.91Zm1.73,11.32.58-8.73h7.19l.58,8.73Zm6.91,8.16,4.6,9.3h7.67l-4.51-9.3Zm6.14,6.71-2-4.12h2l1.91,4.12ZM28.58,120h5.66l1.44-9.21H27.14Zm4.13-6.62-.67,4H30.89l-.68-4Z"/><path id="logo-vertical-08" d="M43.07,117.41H38.75l.67-4h3.07V107H34.63v-3.74H28.2V107H20.33v6.42H23.4l.68,4H19.76v6.43H43.07Zm-2.59,3.83H22.35V120h4.7l-1.44-9.21H22.92v-1.25h7.87V105.8H32v3.74H39.9v1.25H37.22L35.78,120h4.7Zm1,3.84H21.77V145.6H41.44ZM38.85,143H24.27V127.67H38.85Z"/><path id="logo-vertical-09" d="M37.6,128.91h-12v12.86h12ZM35,139.18H28.1V131.5H35ZM6.33,113.57H0v11.12H6.33ZM3.84,122.1H2.59v-6H3.84Z"/><path id="logo-vertical-10" d="M7.1,142.15A20.34,20.34,0,0,0,11,136.1l4.51,5.18,4.41-4.5-7-8.15a58.14,58.14,0,0,0,.38-7.1V103.3H7.1v18.23c0,1.72-.1,3.26-.19,4.51a36,36,0,0,1-.68,4.22,15.93,15.93,0,0,1-1.43,4,15.07,15.07,0,0,1-2.4,3.46l-1.25,1.34,4.6,4.51,1.35-1.44ZM4.8,139a17.72,17.72,0,0,0,2.4-3.55,18.72,18.72,0,0,0,1.63-4.7,40.53,40.53,0,0,0,.67-4.51c.1-1.34.19-3,.19-4.7V105.8h1.15v15.63a52.13,52.13,0,0,1-.38,7.39v.57l6.23,7.29-.86.87-5.66-6.33-.67,2a18.23,18.23,0,0,1-3.75,6.71Z"/><path id="logo-vertical-11" d="M19.58,113.66H14.1v11.42S19.58,124.87,19.58,113.66Zm-3.47,2.4h1.44c-.1,1.54-.48,3.74-1.44,4.89Zm23.5-35.2H54.67a2.18,2.18,0,0,1,1.25.29,22.74,22.74,0,0,0,8.63,2.59l1.64.28c.86.29,1,.39,1,1.64,0,3.35,1.64,5.46,4.22,5.46s4.22-2.11,4.22-5.46V83.45c0-.48.2-.58.77-.67a26.76,26.76,0,0,0,7.19-1.54,7.3,7.3,0,0,1,2.4-.38h15.93c.57,0,.86-.1.86-.77v-1c0-.57-.1-.86-.87-.86H89.4c-.48,0-.48-.29-.1-.58l.48-.48c2.3-2.4,5.27-6.52,5.08-14.1s-2.11-11.22-6.33-18.6c-2.88-5.09-4.22-9.79-4.89-17.84a63.62,63.62,0,0,1-.1-6.62V18.61a16.05,16.05,0,0,0-1.05-7.1v-.29c-.29-.77-.2-1.05-.1-1.25s1.63-.38,3.74.2a13.89,13.89,0,0,0,3.74.57,6.54,6.54,0,0,0,5.37-2.3,1.84,1.84,0,0,0,.38-1.53c-.18-1.06-1.14-1.54-2.48-2.21a17.86,17.86,0,0,1-3.26-2C86.71.1,85.56-.58,83.26.48a6.12,6.12,0,0,0-2.59,2.69c-.29.57-.77,1.24-1.15,1.24a3.06,3.06,0,0,1-1.92-1L76.16,2.4a8.94,8.94,0,0,0-9.4,0L65.32,3.45c-1,.77-1.25,1-2.11,1-.29,0-.67-.77-1.06-1.25A6,6,0,0,0,59.56.48c-2.3-1-3.54-.29-6.62,2.21a18.13,18.13,0,0,1-3.25,2c-1.35.67-2.3,1.15-2.5,2.21a1.81,1.81,0,0,0,.39,1.53A6.51,6.51,0,0,0,53,10.74a14,14,0,0,0,3.74-.57c2.11-.58,3.64-.49,3.74-.2s.1.48-.1,1.25l-.19.67a13.84,13.84,0,0,0-1.06,6.81A24.2,24.2,0,0,1,57,29.54a39.94,39.94,0,0,0-3.54,19.57c0,.86.1,1.63.1,2.21-.1,3.26-.39,3.74-1.44,5.27l-.29.48a17.88,17.88,0,0,0-3.56,10.36,15.51,15.51,0,0,0,3.55,10.26c.29.39.1.58-.48.58H39.71c-.58,0-.77.19-.77.67V80c0,.58.19.86.67.86m11.9-9L51.32,71a.35.35,0,0,1,.31-.38H63.69a.63.63,0,0,0,.65-.6.64.64,0,0,0-.6-.65H51.51c-.39,0-.58-.1-.58-.38a2.51,2.51,0,0,0-.1-.86c-.1-.29.1-.29.39-.29h11a.63.63,0,0,0,.6-.65.62.62,0,0,0-.6-.6H51.41c-.38,0-.48-.1-.48-.38v-.87a.44.44,0,0,1,.48-.29H61.58a.63.63,0,0,0,.6-.65.61.61,0,0,0-.6-.59H52c-.39,0-.58-.2-.48-.58l.19-.67c.1-.29.29-.39.67-.39h9a.62.62,0,1,0,0-1.24H53.14c-.38,0-.57-.2-.38-.48l.48-.77a.55.55,0,0,1,.48-.19h7.67a.63.63,0,1,0,0-1.25H54.86c-.48,0-.67-.1-.38-.48L55,57a.66.66,0,0,1,.67-.38h5.18a.63.63,0,1,0,0-1.25h-4.7c-.29,0-.38-.1-.29-.38l.2-.77c0-.29.1-.39.57-.39h3.74a.62.62,0,0,0,.63-.62.63.63,0,0,0-.63-.62H56.59c-.38,0-.57-.1-.57-.58V51.5c0-.38,0-.58.48-.58h2a.62.62,0,0,0,.62-.62.62.62,0,0,0-.62-.62H56.59a.47.47,0,0,1-.57-.36.41.41,0,0,1,0-.22v-.19c0-.39.19-.48.57-.48h.48a.63.63,0,1,0,0-1.25H56.4a.45.45,0,0,1-.48-.42v-.35c0-.19.1-.38.48-.57a8,8,0,0,0,3-1.63,6.71,6.71,0,0,0,1.83-2.88,10.74,10.74,0,0,0,.28-1.25,9.31,9.31,0,0,0,.1-3.07,8.53,8.53,0,0,0-1.24-3.45l-1.06-1.25a1.07,1.07,0,0,1-.1-1.25l.19-.48A27,27,0,0,0,61.2,25c.1-.48.19-.57.67-.86A13.21,13.21,0,0,0,65.42,22l.86-.95a14.39,14.39,0,0,1,2.4-2.59l.67-.48a3.85,3.85,0,0,1,2-.58,3.67,3.67,0,0,1,1.35.29l1.24.77a11.13,11.13,0,0,1,1.54,1.53L76.35,21a9.52,9.52,0,0,0,4,2.88,1,1,0,0,1,.58,1v.76c0,.29-.1.48-.58.48H78.84a.63.63,0,0,0,0,1.25h1.73c.29,0,.67,0,.67.48v.58c0,.28,0,.48-.29.48H78.84a.62.62,0,0,0,0,1.24h2.21a.59.59,0,0,1,.58.48v.58c0,.29,0,.48-.29.48h-2.5a.63.63,0,0,0,0,1.25h2.59a.57.57,0,0,1,.58.57v.58c.1.29,0,.48-.29.48H79.13a.63.63,0,0,0,0,1.25h2.69c.38,0,.58.1.67.48l.19.57c.1.19.1.48-.29.48H80.57a.58.58,0,1,0-.46,1.06.61.61,0,0,0,.46,0h2c.38,0,.57.1.67.48l.19.57c.1.29.1.48-.29.48H81.91a.63.63,0,0,0,0,1.25h1.63c.39,0,.58,0,.67.39l.29.67c.19.38.1.57-.29.57h-.95a.63.63,0,1,0,0,1.25h1.53a.75.75,0,0,1,.86.38l.39.67c.19.29.19.49-.19.49H84.7a.62.62,0,0,0-.63.62.63.63,0,0,0,.63.62h1.63a1,1,0,0,1,.86.39l.38.76c.2.29.1.39-.28.39H86.14a.63.63,0,1,0,0,1.25h1.72a.86.86,0,0,1,.87.38l.38.67c.1.29.1.48-.29.48h-.19a.63.63,0,0,0,0,1.25h.86a.78.78,0,0,1,.77.48,24.83,24.83,0,0,1,2.3,10.45c.19,6.62-2.21,10.08-4.41,12.38s-7.58,4.6-13.81,4.8a1.25,1.25,0,0,0-1.16,1.15v4c0,1.44-.28,3.07-1.72,3.07a1.45,1.45,0,0,1-1.44-1c-.1-.39-.1-.58.57-.58h1.06a.63.63,0,0,0,.6-.65.65.65,0,0,0-.6-.6H70.12c-.39,0-.48-.28-.48-.57V84.9c0-.39.1-.48.48-.48h1.34a.63.63,0,0,0,0-1.25H69.73a1.94,1.94,0,0,1-1.15-.57L67.72,82c-.48-.19-.48-.38.1-.38h3.54a.63.63,0,1,0,0-1.25H61.29a4.88,4.88,0,0,1-1.73-.29l-1.92-.87c-.29-.19-.29-.38.1-.38H76.93a.61.61,0,0,0,.59-.65.63.63,0,0,0-.59-.6H56A1.54,1.54,0,0,1,55,77.32l-.86-1c-.19-.2-.1-.39.38-.39h15a.62.62,0,0,0,0-1.24h-16a.78.78,0,0,1-.77-.39l-.38-.67c-.2-.29-.2-.58.28-.58H65.8a.62.62,0,1,0,0-1.24H52.18a.86.86,0,0,1-.77-.29"/><path id="logo-vertical-12" d="M79,75.2,80.86,75c.57-.1.67-.48.57-1-1.15-6.72-3.74-18-5.37-23.4-.18-.68-.57-.78-1.24-.58a8.25,8.25,0,0,0-5.09,4.42c-1,2.4-1.34,5.46-.57,9.4,1.24,7.38,4.6,11.22,9.88,11.22M77.5,50.36c1.63,5.37,4.22,16.59,5.37,23.3.1.48.39.77.87.58a8.16,8.16,0,0,0,4.5-4.12c1.06-2.4,1.35-5.47.58-9.4-1.44-8-5.18-11.7-11-11.13C77.31,49.69,77.31,50.07,77.5,50.36Z"/></svg>