<svg version="1.1" id="レイヤー_1" xmlns="http://www.w3.org/2000/svg" xmlns:xlink="http://www.w3.org/1999/xlink" x="0px"
   y="0px" viewBox="0 0 247 48.784" style="enable-background:new 0 0 247 48.784;" xml:space="preserve">
<g id="logo" transform="translate(123.5 24.394)">
  <g id="グループ_787" transform="translate(-123.5 -24.394)">
    <g id="グループ_785" transform="translate(42.078 8.843)">
      <path id="パス_6538" class="st0" d="M76.421,3.132c0-0.479-0.388-0.867-0.867-0.867c-0.479,0-0.867,0.388-0.867,0.867
        c0,0.479,0.388,0.867,0.867,0.867S76.421,3.611,76.421,3.132C76.421,3.132,76.421,3.132,76.421,3.132z"/>
      <path id="パス_6539" class="st0" d="M78.888,3.198c-0.036-1.805-1.529-3.238-3.333-3.201c-1.805,0.036-3.238,1.529-3.201,3.333
        c0.036,1.779,1.488,3.202,3.267,3.202C77.435,6.496,78.888,5.014,78.888,3.198z M73.82,3.198
        c0.036-0.957,0.842-1.703,1.799-1.667s1.703,0.842,1.667,1.799c-0.035,0.931-0.8,1.667-1.732,1.668
        c-0.993-0.036-1.77-0.87-1.734-1.864c0-0.001,0-0.002,0-0.003V3.198z"/>
      <path id="パス_6540" class="st0" d="M0.2,13.535h5.868v5.264L0,21.399v4.535l6.068-2.6v4.8h4.2V2.599h-4.2v6.869H0.2V13.535z
         M1.734,10.935H7.6v-6.8h1.067v22.473H7.6v-5.6l-6.068,2.6v-1.134l6.068-2.6v-7.875H1.732L1.734,10.935z"/>
      <path id="パス_6541" class="st0" d="M16.67,24.071v-8.672l6.4-3.2V7.664l-6.4,3.134v-8.2h-4.2v25.607h11.536v-4.134H16.67z
         M22.405,26.605H14.07V4.133h1.067v9.266l6.4-3.134v1.067l-6.4,3.2v11.2h7.333L22.405,26.605z"/>
      <path id="パス_6542" class="st0" d="M102.628,17.669v-4.334H82.956v4.335L102.628,17.669z M84.628,16.069v-1.134h16.4v1.134
        H84.628z"/>
      <path id="パス_6543" class="st0" d="M110.764,2.532h-4.335v25.607h4.334V15.802l8.8,3.6v-4.67l-8.8-3.6L110.764,2.532z
         M117.899,15.869v1.2l-8.8-3.6v13.137h-1.07V4.199h1.067v8.069L117.899,15.869z"/>
      <path id="パス_6544" class="st0" d="M71.416,11.332h8.469V6.997h-8.469V2.532h-4.334V7h-8.266v4.332h8.269v16.94h4.331V11.332z
         M69.816,26.669h-1.134V9.732h-8.266V8.665h8.269V4.197h1.131v4.468h8.469v1.067h-8.469V26.669z"/>
      <path id="パス_6545" class="st0" d="M73.02,14.335l3.734,10.2h4.535l-3.734-10.2H73.02z M77.888,22.935l-2.534-7h1.134l2.534,7
        H77.888z"/>
      <path id="パス_6546" class="st0" d="M65.084,14.735v-0.333h-4.935v0.734c-0.109,3.075-1.183,6.038-3.068,8.469l-0.733,0.867
        l-0.734,0.867c0.741-0.09,1.475-0.224,2.2-0.4c1.245-0.29,2.408-0.86,3.4-1.667c2.348-2.034,3.728-4.965,3.801-8.07
        L65.084,14.735z M62.284,19.535c-0.49,0.951-1.171,1.791-2,2.467l-0.4,0.267c1.054-1.936,1.69-4.071,1.867-6.268h1.534
        c-0.131,1.227-0.47,2.423-1.002,3.536L62.284,19.535z"/>
      <path id="パス_6547" class="st0" d="M192.319,2.665h-12.07v4h12.07V2.665z M190.785,5.065h-9V4.198h8.936L190.785,5.065z"/>
      <path id="パス_6548" class="st0" d="M196.719,9.4l7.069-2.6V2.465l-11.2,4.134v6.4l-2.334,15.2h4.134l2.067-13.47h1.6v13.47
        h4.2V14.735h2.667v-4h-8.2L196.719,9.4z M203.451,12.265v0.867h-2.667v13.47h-1.067v-13.4h-4.535l-2.067,13.47h-1l2.067-13.47
        V7.734l8.069-3v1l-7.069,2.6v3.931H203.451z"/>
      <path id="パス_6549" class="st0" d="M189.116,9.867h-5.4v5.2h5.4V9.867z M187.582,13.535h-2.334v-2.134h2.268L187.582,13.535z"
        />
      <path id="パス_6550" class="st0" d="M191.585,7.467h-10.4v7.535l-1.467,13.2h4.068l1.129-10.735h6.6L191.585,7.467z
         M190.051,15.867h-6.468l-1.134,10.736h-0.934l1.267-11.6V8.935h7.269V15.867z"/>
      <g id="グループ_784" transform="translate(151.041 2.534)">
        <path id="パス_6551" class="st0" d="M4.8,25.604l2.6-5.2H2.6l-2.6,5.2H4.8z M3.533,21.936h1.2l-1.067,2.067h-1.2L3.533,21.936
          z"/>
        <path id="パス_6552" class="st0" d="M19.405,20.47l2.6,5.2h4.668l-2.6-5.2H19.405z M23.005,24.07l-1.067-2.067h1.134
          l1.067,2.067H23.005z"/>
        <path id="パス_6553" class="st0" d="M12.404,20.404H8.136l1.267,5.068h4.268L12.404,20.404z M10.67,23.872l-0.533-1.934h1.067
          l0.534,1.934H10.67z"/>
        <path id="パス_6554" class="st0" d="M13.737,20.404l1.8,5.068h4.4l-1.8-5.068H13.737z M16.671,23.872l-0.733-1.934h1.067
          l0.734,1.934H16.671z"/>
        <path id="パス_6555" class="st0" d="M24.007,19.867v-13h-4.068v13H24.007z M21.473,8.397h0.934v9.87h-0.934V8.397z"/>
        <path id="パス_6556" class="st0" d="M14.537,18.07h4V7h-4V18.07z M16.071,8.534h0.867v8h-0.867V8.534z"/>
        <path id="パス_6557" class="st0" d="M13.471,19.87V6.8H2.601v13.07h3.934v-2.134h2.934v2.134H13.471z M4.935,16.202v2.134
          h-0.8v-10h7.8v10h-0.867V16.2L4.935,16.202z"/>
        <path id="パス_6558" class="st0" d="M11.003,9H4.935v2.934h6.068L11.003,9z M9.803,10.734h-3.6v-0.467h3.6V10.734z"/>
        <path id="パス_6559" class="st0" d="M11.003,12.601H4.935v2.934h6.068L11.003,12.601z M9.803,14.268h-3.6v-0.467h3.6V14.268z"
          />
        <path id="パス_6560" class="st0" d="M25.074,2.265h-5.068l1.134-2.267h-4.468l-1.138,2.267h-4.868L9.534-0.002H5.066
          L6.2,2.265H1.534v3.868H25.14L25.074,2.265z M23.54,4.599H3.068V3.865h5.666L7.6,1.598h1l1.134,2.267h6.8l1.134-2.267h1
          l-1.134,2.268h6L23.54,4.599z"/>
      </g>
      <path id="パス_6561" class="st0" d="M35.476,4.265l-5.268-2v4.468l5.268,2V4.265z M33.942,6.465l-2.134-0.8V4.531l2.134,0.8
        V6.465z"/>
      <path id="パス_6562" class="st0" d="M30.208,12.068l5.268,2V9.6l-5.268-2V12.068z M31.742,9.868l2.134,0.8V11.8L31.742,11
        V9.868z"/>
      <path id="パス_6563" class="st0" d="M31.141,15.135l-4.2,12.937h4.4l4.2-12.937H31.141z M30.141,26.471h-1.134l3.268-9.8h1.134
        L30.141,26.471z"/>
      <path id="パス_6564" class="st0" d="M35.343,28.137h4.668l2.8-5.6h-4.668L35.343,28.137z M40.211,24.069l-1.2,2.467h-1.2
        l1.2-2.467H40.211z"/>
      <path id="パス_6565" class="st0" d="M50.209,12.268h2.067v-4H41.944v-0.4l8.936-1.734v-4l-12.8,2.4l-1.071,12.935h-2v4h18v-4
        h-2.334L50.209,12.268z M51.409,20.003h-14.8v-0.871h1.867l1.134-13.2l9.736-1.867v0.8l-8.8,1.734l-0.267,3.268h10.47v0.867h-2.2
        l0.667,8.4h2.2L51.409,20.003z"/>
      <path id="パス_6566" class="st0" d="M40.211,10.734l-0.6,8.4h8.469l-0.6-8.4H40.211z M41.278,17.603l0.4-5.268h4.4l0.4,5.268
        H41.278z"/>
      <path id="パス_6567" class="st0" d="M45.479,22.537l2.8,5.6h4.668l-2.734-5.6H45.479z M49.213,26.605l-1.2-2.467h1.2l1.2,2.467
        H49.213z"/>
      <path id="パス_6568" class="st0" d="M140.105,12.8h3.468l0.867-5.6h-5.202L140.105,12.8z M142.572,8.8l-0.4,2.467h-0.667
        l-0.4-2.467H142.572z"/>
      <path id="パス_6569" class="st0" d="M148.907,11.199h-2.6l0.4-2.467h1.863V4.864h-4.8V2.599h-3.868v2.267h-4.8v3.868h1.868
        l0.4,2.467h-2.6v3.868h14.07L148.907,11.199z M147.373,13.533h-11v-0.734h2.867l-0.867-5.6h-1.667V6.465h4.8V4.199h0.733v2.267
        h4.8V7.2h-1.669l-0.867,5.6h2.867L147.373,13.533z"/>
      <path id="パス_6570" class="st0" d="M147.907,15.869H135.97v12.4h11.937V15.869z M146.37,26.739h-8.869v-9.27h8.8
        L146.37,26.739z"/>
      <path id="パス_6571" class="st0" d="M145.572,18.203h-7.335v7.8h7.335V18.203z M144.038,24.403h-4.2v-4.668h4.2V24.403z"/>
      <path id="パス_6572" class="st0" d="M126.635,8.934h-3.868v6.735h3.868L126.635,8.934z M125.101,14.134h-0.734v-3.668h0.734
        V14.134z"/>
      <path id="パス_6573" class="st0" d="M127.101,26.205c1.01-1.071,1.823-2.313,2.4-3.668l2.734,3.134l2.667-2.734l-4.268-4.935
        c0.154-1.439,0.221-2.887,0.2-4.334v-11h-3.8v11.07c0,1-0.067,1.934-0.133,2.734c-0.083,0.852-0.217,1.698-0.4,2.534
        c-0.177,0.857-0.469,1.687-0.867,2.467c-0.39,0.754-0.884,1.45-1.467,2.067l-0.734,0.8l2.8,2.8L127.101,26.205z M125.701,24.271
        c0.574-0.649,1.067-1.365,1.467-2.134c0.454-0.886,0.79-1.827,1-2.8c0.187-0.903,0.321-1.816,0.4-2.734
        c0.067-0.8,0.133-1.8,0.133-2.867V4.2h0.734v9.465c0.014,1.494-0.075,2.987-0.267,4.468v0.333l3.8,4.4l-0.533,0.533l-3.4-3.8
        l-0.4,1.267c-0.469,1.477-1.241,2.839-2.267,4L125.701,24.271z"/>
      <path id="パス_6574" class="st0" d="M134.636,9.667v-0.8h-3.334v6.935l0.534-0.333C133.699,14.14,134.755,11.952,134.636,9.667
        z M132.502,10.267h0.867c-0.001,1.041-0.302,2.06-0.867,2.934V10.267z"/>
    </g>
    <g id="グループ_786">
      <path id="パス_6575" class="st0" d="M0.467,43.317h8.069c0.23-0.021,0.462,0.025,0.667,0.133l0,0
        c1.424,0.77,2.988,1.247,4.6,1.4l0.867,0.133c0.467,0.2,0.533,0.2,0.533,0.867c0,1.8,0.867,2.934,2.267,2.934
        s2.267-1.134,2.267-2.934v-1.2c0-0.267,0.133-0.333,0.4-0.333c1.32-0.086,2.622-0.355,3.868-0.8
        c0.409-0.136,0.837-0.203,1.267-0.2h8.536c0.333,0,0.467-0.067,0.467-0.4v-0.533c0-0.333-0.067-0.467-0.467-0.467H27.14
        c-0.2,0-0.267-0.133-0.067-0.333l0.267-0.267c1.898-2.035,2.885-4.756,2.734-7.535c-0.067-4-1.134-6-3.4-9.936
        c-1.534-2.734-2.267-5.2-2.6-9.536c-0.083-1.176-0.105-2.356-0.067-3.534v-0.8c0.092-1.296-0.113-2.595-0.6-3.8V6.043
        c-0.133-0.4-0.133-0.6-0.067-0.667c0.665-0.152,1.361-0.106,2,0.133c0.648,0.203,1.321,0.315,2,0.333
        c1.103,0.058,2.168-0.412,2.867-1.267c0.199-0.242,0.273-0.563,0.2-0.867c-0.133-0.533-0.6-0.8-1.334-1.2
        c-0.614-0.293-1.195-0.651-1.734-1.067c-1.667-1.4-2.334-1.734-3.534-1.2c-0.61,0.328-1.101,0.842-1.4,1.467
        c-0.2,0.267-0.4,0.667-0.6,0.667c-0.399-0.072-0.77-0.257-1.067-0.533l-0.734-0.533c-1.531-0.952-3.469-0.952-5,0L14.27,1.842
        c-0.282,0.335-0.696,0.529-1.134,0.533l0,0c-0.133,0-0.4-0.4-0.533-0.667c-0.299-0.625-0.79-1.139-1.4-1.467
        c-1.2-0.533-1.867-0.133-3.534,1.2C7.13,1.857,6.549,2.215,5.935,2.508c-0.734,0.4-1.2,0.667-1.334,1.2
        c-0.073,0.304,0.001,0.625,0.2,0.867C5.5,5.43,6.565,5.9,7.668,5.842c0.679-0.018,1.352-0.13,2-0.333
        c1.134-0.333,1.934-0.267,2-0.133s0.067,0.267-0.067,0.667l-0.133,0.333c-0.486,1.158-0.669,2.42-0.533,3.668
        c0.072,1.995-0.316,3.979-1.134,5.8c-1.493,3.277-2.135,6.878-1.867,10.469c0,0.467,0,0.867,0,1.2
        c0.144,0.994-0.12,2.004-0.733,2.8l-0.2,0.267c-1.182,1.606-1.835,3.541-1.867,5.535c-0.049,1.987,0.613,3.926,1.867,5.468l0,0
        c0.2,0.2,0.067,0.333-0.267,0.333H0.4c-0.333,0-0.4,0.067-0.4,0.333v0.533C0.067,43.25,0.2,43.317,0.467,43.317z M6.802,38.449
        l-0.133-0.467c-0.014-0.097,0.054-0.186,0.151-0.2c0.016-0.002,0.033-0.002,0.049,0h6.468c0.184,0,0.333-0.149,0.333-0.333
        s-0.149-0.333-0.333-0.333H6.869c-0.144,0.021-0.283-0.063-0.333-0.2c-0.067-0.133,0-0.333,0-0.467s0.067-0.133,0.2-0.133H12.6
        c0.184,0,0.333-0.149,0.333-0.333s-0.149-0.333-0.333-0.333H6.8c-0.2,0-0.267-0.067-0.267-0.2v-0.467
        c0-0.067,0.067-0.133,0.267-0.133h5.335c0.184,0,0.333-0.149,0.333-0.333s-0.149-0.333-0.333-0.333H7.067
        c-0.2,0-0.333-0.067-0.267-0.267l0.133-0.333c0.05-0.137,0.189-0.221,0.333-0.2h4.8c0.184,0,0.333-0.149,0.333-0.333
        s-0.149-0.333-0.333-0.333H7.6c-0.2,0-0.267-0.133-0.2-0.267l0.267-0.4C7.743,31.942,7.873,31.89,8,31.914h4.134
        c0.184,0,0.333-0.149,0.333-0.334c0-0.184-0.149-0.333-0.333-0.333H8.6c-0.267,0-0.333-0.067-0.2-0.267l0,0l0.267-0.4l0,0
        c0.057-0.131,0.191-0.212,0.333-0.2h2.8c0.184,0,0.333-0.149,0.333-0.333c0-0.184-0.149-0.334-0.333-0.334H9.266
        c-0.097,0.014-0.186-0.054-0.2-0.151c-0.002-0.016-0.002-0.033,0-0.049l0,0v-0.4l0,0c0-0.133,0.067-0.2,0.267-0.2h2
        c0.184,0,0.333-0.149,0.333-0.334c0-0.184-0.149-0.333-0.333-0.333H9.4c-0.2,0-0.267-0.067-0.267-0.333l0,0v-0.267l0,0
        c0-0.2,0-0.267,0.267-0.267h1c0.184,0,0.333-0.149,0.333-0.334c0-0.184-0.149-0.333-0.333-0.333h-1
        c-0.147,0-0.267-0.12-0.267-0.267l0,0v-0.267c0-0.2,0.133-0.267,0.333-0.267h0.267c0.184,0,0.333-0.149,0.333-0.333
        c0-0.184-0.149-0.334-0.333-0.334H9.4c-0.2,0-0.267-0.067-0.267-0.267v-0.133c0-0.133,0.067-0.2,0.267-0.267l0,0
        c0.589-0.171,1.135-0.466,1.6-0.867c0.46-0.417,0.804-0.945,1-1.534l0.2-0.667c0.107-0.526,0.13-1.066,0.067-1.6
        c-0.084-0.663-0.312-1.301-0.667-1.867l-0.533-0.667l0,0c-0.156-0.188-0.183-0.452-0.067-0.667l0.133-0.267
        c0.418-0.964,0.731-1.969,0.934-3l0,0c0.067-0.267,0.067-0.333,0.4-0.467l0,0c0.706-0.291,1.36-0.696,1.934-1.2l0.467-0.533
        c0.386-0.519,0.834-0.989,1.334-1.4l0.333-0.267c0.318-0.207,0.688-0.322,1.067-0.333l0.733,0.133l0.667,0.4l0.8,0.8l0.467,0.6
        c0.564,0.69,1.3,1.219,2.134,1.534l0,0c0.192,0.078,0.322,0.26,0.333,0.467l0,0v0.4l0,0c0.013,0.134-0.084,0.254-0.219,0.267
        c-0.016,0.002-0.032,0.002-0.048,0h-0.934c-0.184,0-0.333,0.149-0.333,0.333c0,0.184,0.149,0.334,0.333,0.334h0.934
        c0.184-0.036,0.362,0.083,0.4,0.267l0,0v0.333l0,0c0,0.133,0,0.267-0.2,0.267h-1.2c-0.184,0-0.333,0.149-0.333,0.334
        c0,0.184,0.149,0.333,0.333,0.333h1.134c0.143-0.037,0.288,0.05,0.325,0.193c0.006,0.024,0.009,0.049,0.008,0.074l0,0v0.333l0,0
        c0,0.133,0,0.267-0.133,0.267h-1.334c-0.184,0-0.333,0.149-0.333,0.333c0,0.184,0.149,0.334,0.333,0.334h1.334
        c0.161-0.003,0.301,0.109,0.333,0.267l0,0v0.267l0,0c0,0.133,0,0.267-0.2,0.267h-1.4c-0.184,0-0.333,0.149-0.333,0.334
        c0,0.184,0.149,0.333,0.333,0.333h1.467c0.2,0,0.333,0,0.333,0.267l0,0v0.333l0,0c0,0.133,0.067,0.267-0.2,0.267h-1
        c-0.184,0-0.333,0.149-0.333,0.334c0,0.184,0.149,0.333,0.333,0.333h1.067c0.181-0.023,0.352,0.091,0.4,0.267l0,0l0.133,0.333
        l0,0c0.067,0.2,0.067,0.267-0.133,0.267h-0.667c-0.184,0-0.333,0.149-0.333,0.334c0,0.184,0.149,0.333,0.333,0.333h0.867
        c0.2,0,0.333,0,0.4,0.2l0,0l0.133,0.4l0,0c0.067,0.2,0.067,0.267-0.133,0.267h-0.534c-0.184,0-0.333,0.149-0.333,0.334
        c0,0.184,0.149,0.333,0.333,0.333h0.8c0.177-0.005,0.348,0.068,0.467,0.2l0,0l0.2,0.333l0,0c0.067,0.133,0.067,0.267-0.067,0.267
        h-0.467c-0.184,0-0.333,0.149-0.333,0.334c0,0.184,0.149,0.333,0.333,0.333h0.867c0.179-0.017,0.355,0.059,0.467,0.2l0.2,0.4
        c0.067,0.133,0.067,0.2-0.133,0.2h-0.667c-0.184,0-0.333,0.149-0.333,0.334c0,0.184,0.149,0.333,0.333,0.333l0,0h0.934
        c0.181-0.031,0.364,0.047,0.467,0.2l0.2,0.4c0.067,0.133,0.067,0.267-0.2,0.267h-0.133c-0.184,0-0.333,0.149-0.333,0.334
        c0,0.184,0.149,0.333,0.333,0.333h0.467c0.178-0.01,0.341,0.099,0.4,0.267c0.826,1.752,1.258,3.663,1.267,5.6
        c0.222,2.435-0.631,4.846-2.334,6.6c-1.134,1.2-4,2.534-7.335,2.6c-0.342,0.035-0.602,0.323-0.6,0.667v2.134
        c0,0.734-0.133,1.667-0.934,1.667c-0.331-0.008-0.623-0.22-0.734-0.533c-0.067-0.2-0.067-0.333,0.333-0.333h0.533
        c0.184,0,0.333-0.149,0.333-0.333s-0.149-0.333-0.333-0.333h-0.8c-0.2,0-0.267-0.133-0.267-0.333l0,0v-0.267l0,0
        c0-0.2,0.067-0.267,0.267-0.267H17.6c0.184,0,0.333-0.149,0.333-0.333s-0.149-0.333-0.333-0.333h-0.934
        c-0.224-0.019-0.436-0.113-0.6-0.267l0,0l-0.467-0.333l0,0c-0.267-0.133-0.267-0.2,0.067-0.2H17.6
        c0.184,0,0.333-0.149,0.333-0.333s-0.149-0.333-0.333-0.333h-5.468c-0.317,0.015-0.634-0.031-0.934-0.133l-1.067-0.467
        c-0.2-0.133-0.133-0.2,0.067-0.2h10.336c0.184,0,0.333-0.149,0.333-0.333s-0.149-0.333-0.333-0.333H9.2
        c-0.187,0.015-0.374-0.032-0.533-0.133L8.2,41.049c-0.067-0.133-0.067-0.2,0.2-0.2h8.069c0.184,0,0.333-0.149,0.333-0.333
        s-0.149-0.333-0.333-0.333h-8.6c-0.162,0.021-0.32-0.058-0.4-0.2l-0.2-0.333c-0.067-0.2-0.067-0.267,0.2-0.267h7.069
        c0.184,0,0.333-0.149,0.333-0.333s-0.149-0.333-0.333-0.333H7.2c-0.267-0.067-0.333-0.067-0.4-0.2L6.802,38.449z"/>
      <path id="パス_6576" class="st0" d="M21.539,40.311h1c0.267-0.067,0.333-0.267,0.267-0.533c-0.6-3.6-2-9.669-2.867-12.537
        c-0.133-0.333-0.333-0.4-0.667-0.267c-1.202,0.353-2.197,1.202-2.734,2.334c-0.609,1.619-0.725,3.383-0.333,5.068
        C16.938,38.311,18.672,40.311,21.539,40.311z"/>
      <path id="パス_6577" class="st0" d="M20.738,27.046c0.867,2.867,2.267,8.869,2.867,12.47l0,0c0.067,0.267,0.2,0.4,0.467,0.267
        c1.055-0.394,1.916-1.183,2.4-2.2c0.609-1.619,0.724-3.383,0.333-5.068c-0.734-4.268-2.734-6.268-5.868-5.935
        c-0.267,0.067-0.267,0.267-0.2,0.467L20.738,27.046z"/>
    </g>
  </g>
</g>
</svg>